<?xml version="1.0" encoding="UTF-8"?>
<!DOCTYPE svg PUBLIC "-//W3C//DTD SVG 1.1//EN" "http://www.w3.org/Graphics/SVG/1.1/DTD/svg11.dtd">
<svg xmlns="http://www.w3.org/2000/svg" version="1.1" width="1200px" height="1200px" style="shape-rendering:geometricPrecision; text-rendering:geometricPrecision; image-rendering:optimizeQuality; fill-rule:evenodd; clip-rule:evenodd" xmlns:xlink="http://www.w3.org/1999/xlink">
<g><path style="opacity:0.49" fill="#fffefd" d="M 725.5,379.5 C 733.5,379.5 741.5,379.5 749.5,379.5C 749.5,397.833 749.5,416.167 749.5,434.5C 753.5,434.5 757.5,434.5 761.5,434.5C 761.5,437.5 761.5,440.5 761.5,443.5C 749.5,443.5 737.5,443.5 725.5,443.5C 725.5,440.5 725.5,437.5 725.5,434.5C 729.5,434.5 733.5,434.5 737.5,434.5C 737.5,419.167 737.5,403.833 737.5,388.5C 733.818,388.665 730.152,388.499 726.5,388C 725.556,385.281 725.223,382.448 725.5,379.5 Z"/></g>
<g><path style="opacity:0.492" fill="#fffefe" d="M 434.5,383.5 C 438.846,383.334 443.179,383.501 447.5,384C 446.518,391.747 446.185,399.58 446.5,407.5C 452.5,407.5 458.5,407.5 464.5,407.5C 464.5,399.5 464.5,391.5 464.5,383.5C 468.555,383.176 472.555,383.509 476.5,384.5C 475.512,404.12 475.179,423.787 475.5,443.5C 471.833,443.5 468.167,443.5 464.5,443.5C 464.5,434.5 464.5,425.5 464.5,416.5C 458.5,416.5 452.5,416.5 446.5,416.5C 446.5,425.5 446.5,434.5 446.5,443.5C 442.5,443.5 438.5,443.5 434.5,443.5C 434.5,423.5 434.5,403.5 434.5,383.5 Z"/></g>
<g><path style="opacity:0.489" fill="#fffefd" d="M 582.5,408.5 C 581.597,405.609 581.264,402.609 581.5,399.5C 584.5,399.5 587.5,399.5 590.5,399.5C 590.5,395.833 590.5,392.167 590.5,388.5C 594.832,387.903 599.165,387.737 603.5,388C 601.954,391.65 601.287,395.484 601.5,399.5C 606.167,399.5 610.833,399.5 615.5,399.5C 615.5,402.5 615.5,405.5 615.5,408.5C 610.833,408.5 606.167,408.5 601.5,408.5C 600.091,416.545 600.258,424.545 602,432.5C 603.47,434.152 605.303,435.152 607.5,435.5C 610.862,434.937 613.862,433.603 616.5,431.5C 617.729,433.923 618.729,436.423 619.5,439C 612.553,444.461 604.886,445.795 596.5,443C 594.291,441.127 592.458,438.96 591,436.5C 589.614,427.234 589.114,417.9 589.5,408.5C 587.167,408.5 584.833,408.5 582.5,408.5 Z"/></g>
<g><path style="opacity:0.489" fill="#fffefe" d="M 521.5,398.5 C 542.63,398.773 551.463,409.106 548,429.5C 540.969,444.066 530.136,447.899 515.5,441C 505.06,430.861 503.227,419.694 510,407.5C 513.158,403.493 516.992,400.493 521.5,398.5 Z M 524.5,407.5 C 530.843,406.755 535.01,409.422 537,415.5C 538.646,422.523 537.146,428.689 532.5,434C 524.945,436.813 520.111,434.313 518,426.5C 515.772,418.491 517.939,412.157 524.5,407.5 Z"/></g>
<g><path style="opacity:0.49" fill="#fffefd" d="M 666.5,398.5 C 684.939,397.274 693.273,405.941 691.5,424.5C 681.833,425.833 672.167,425.833 662.5,424.5C 663.83,433.617 669.163,437.117 678.5,435C 680.664,434.086 682.664,432.919 684.5,431.5C 686.65,433.149 688.65,434.982 690.5,437C 681.517,445.301 671.517,446.634 660.5,441C 654.024,436.384 650.691,430.051 650.5,422C 650.725,410.902 656.059,403.069 666.5,398.5 Z M 667.5,407.5 C 675.291,405.874 679.624,408.874 680.5,416.5C 674.5,416.5 668.5,416.5 662.5,416.5C 662.884,412.728 664.55,409.728 667.5,407.5 Z"/></g>
<g><path style="opacity:0.235" fill="#fef6ec" d="M 581.5,399.5 C 581.264,402.609 581.597,405.609 582.5,408.5C 581.235,407.486 580.569,405.986 580.5,404C 580.508,402.293 580.842,400.793 581.5,399.5 Z"/></g>
<g><path style="opacity:0.974" fill="#fffefe" d="M 421.5,527.5 C 427.206,527.171 432.872,527.505 438.5,528.5C 444.568,548.536 450.734,568.536 457,588.5C 462.812,568.234 468.312,547.901 473.5,527.5C 479.176,527.334 484.843,527.501 490.5,528C 480.867,557.733 471.534,587.566 462.5,617.5C 458.233,617.797 454.066,617.464 450,616.5C 440.342,586.862 430.842,557.195 421.5,527.5 Z"/></g>
<g><path style="opacity:0.975" fill="#fffefe" d="M 669.5,533.5 C 672.247,533.187 674.914,533.52 677.5,534.5C 675.446,539.895 674.446,545.561 674.5,551.5C 681.5,551.5 688.5,551.5 695.5,551.5C 695.5,555.833 695.5,560.167 695.5,564.5C 688.5,564.5 681.5,564.5 674.5,564.5C 673.453,575.478 673.287,586.478 674,597.5C 674.81,602.644 677.81,605.31 683,605.5C 688.187,604.989 692.687,602.989 696.5,599.5C 698.829,602.966 700.495,606.8 701.5,611C 691.179,618.831 679.845,620.831 667.5,617C 661.15,612.961 657.65,607.128 657,599.5C 656.5,587.838 656.333,576.171 656.5,564.5C 652.167,564.5 647.833,564.5 643.5,564.5C 643.5,560.167 643.5,555.833 643.5,551.5C 648.167,551.5 652.833,551.5 657.5,551.5C 657.392,546.13 657.725,540.797 658.5,535.5C 662.337,535.069 666.003,534.402 669.5,533.5 Z"/></g>
<g><path style="opacity:0.978" fill="#fffefe" d="M 557.5,587.5 C 542.735,588.151 528.069,588.818 513.5,589.5C 513.576,596.152 516.576,600.985 522.5,604C 531.71,607.043 540.043,605.543 547.5,599.5C 550.5,601.833 553.167,604.5 555.5,607.5C 549.237,615.463 540.904,619.463 530.5,619.5C 509.027,617.694 497.694,606.027 496.5,584.5C 497.4,563.597 508.067,551.931 528.5,549.5C 544.265,550.124 553.765,558.124 557,573.5C 557.499,578.155 557.666,582.821 557.5,587.5 Z M 522.5,563.5 C 533.626,561.208 539.959,565.542 541.5,576.5C 532.167,576.5 522.833,576.5 513.5,576.5C 514.296,570.555 517.296,566.221 522.5,563.5 Z"/></g>
<g><path style="opacity:0.97" fill="#fffefd" d="M 594.5,549.5 C 605.394,548.643 615.394,551.143 624.5,557C 625.687,558.019 626.687,559.186 627.5,560.5C 624.975,564.896 621.975,568.896 618.5,572.5C 617.08,570.78 615.747,568.946 614.5,567C 607.102,562.484 599.435,561.818 591.5,565C 588.735,567.966 589.068,570.633 592.5,573C 600.5,575.667 608.5,578.333 616.5,581C 629.071,587.547 631.904,597.047 625,609.5C 618.355,616.379 610.188,619.712 600.5,619.5C 588.589,619.699 578.255,615.865 569.5,608C 571.955,602.92 574.788,598.087 578,593.5C 586.687,605.132 597.854,608.299 611.5,603C 614.167,600.333 614.167,597.667 611.5,595C 602.577,591.47 593.577,588.137 584.5,585C 573.11,577.943 570.944,568.777 578,557.5C 582.868,553.315 588.368,550.648 594.5,549.5 Z"/></g>
<g><path style="opacity:0.978" fill="#fffefe" d="M 736.5,549.5 C 747.157,548.527 756.824,551.027 765.5,557C 768.602,561.037 770.768,565.537 772,570.5C 772.5,586.163 772.667,601.83 772.5,617.5C 766.833,617.5 761.167,617.5 755.5,617.5C 755.662,615.473 755.495,613.473 755,611.5C 743.461,620.948 731.295,621.781 718.5,614C 708.988,601.064 710.988,590.064 724.5,581C 734.45,577.13 744.783,575.297 755.5,575.5C 755.27,571.306 753.603,567.806 750.5,565C 741.073,561.895 732.573,563.395 725,569.5C 721.285,566.923 718.118,563.756 715.5,560C 721.503,554.332 728.503,550.832 736.5,549.5 Z M 746.5,587.5 C 749.545,587.704 752.379,587.704 755,587.5C 754.509,603.341 746.676,608.675 731.5,603.5C 728.114,597.684 729.448,593.184 735.5,590C 739.28,589.082 742.946,588.249 746.5,587.5 Z"/></g>
<g><path style="opacity:0.247" fill="#fff5ec" d="M 557.5,587.5 C 543.205,589.483 528.538,590.15 513.5,589.5C 528.069,588.818 542.735,588.151 557.5,587.5 Z"/></g>
<g><path style="opacity:0.62" fill="#fffefd" d="M 600.5,694.5 C 599.833,694.833 599.167,695.167 598.5,695.5C 598.711,693.576 599.377,693.243 600.5,694.5 Z"/></g>
<g><path style="opacity:0.988" fill="#fef4e8" d="M 600.5,694.5 C 606.026,705.718 611.692,716.885 617.5,728C 630.647,729.97 643.647,732.304 656.5,735C 647.637,744.197 638.47,753.031 629,761.5C 630.353,774.787 632.52,787.953 635.5,801C 634.5,801.667 633.5,801.667 632.5,801C 621.5,795.167 610.5,789.333 599.5,783.5C 588.5,789.333 577.5,795.167 566.5,801C 565.5,801.667 564.5,801.667 563.5,801C 566.097,788.59 568.43,776.09 570.5,763.5C 568.192,759.861 565.525,756.527 562.5,753.5C 561.758,751.65 560.758,750.984 559.5,751.5C 553.702,746.203 548.035,740.703 542.5,735C 555.353,732.304 568.353,729.97 581.5,728C 587.068,717.027 592.735,706.193 598.5,695.5C 599.167,695.167 599.833,694.833 600.5,694.5 Z"/></g>
<g><path style="opacity:0.922" fill="#fef4e8" d="M 71.5,699.5 C 215.5,699.5 359.5,699.5 503.5,699.5C 503.5,703.833 503.5,708.167 503.5,712.5C 359.5,712.5 215.5,712.5 71.5,712.5C 71.5,708.167 71.5,703.833 71.5,699.5 Z"/></g>
<g><path style="opacity:0.922" fill="#fef4e8" d="M 695.5,699.5 C 839.5,699.5 983.5,699.5 1127.5,699.5C 1127.5,703.833 1127.5,708.167 1127.5,712.5C 983.5,712.5 839.5,712.5 695.5,712.5C 695.5,708.167 695.5,703.833 695.5,699.5 Z"/></g>
<g><path style="opacity:0.922" fill="#fef4e8" d="M 287.5,747.5 C 359.5,747.5 431.5,747.5 503.5,747.5C 503.5,751.833 503.5,756.167 503.5,760.5C 431.5,760.5 359.5,760.5 287.5,760.5C 287.5,756.167 287.5,751.833 287.5,747.5 Z"/></g>
<g><path style="opacity:0.922" fill="#fef4e8" d="M 695.5,747.5 C 767.5,747.5 839.5,747.5 911.5,747.5C 911.5,751.833 911.5,756.167 911.5,760.5C 839.5,760.5 767.5,760.5 695.5,760.5C 695.5,756.167 695.5,751.833 695.5,747.5 Z"/></g>
<g><path style="opacity:0.235" fill="#fff9f3" d="M 562.5,753.5 C 560.973,753.573 559.973,752.906 559.5,751.5C 560.758,750.984 561.758,751.65 562.5,753.5 Z"/></g>
<g><path style="opacity:0.922" fill="#fef4e8" d="M 359.5,795.5 C 407.5,795.5 455.5,795.5 503.5,795.5C 503.5,799.833 503.5,804.167 503.5,808.5C 455.5,808.5 407.5,808.5 359.5,808.5C 359.5,804.167 359.5,799.833 359.5,795.5 Z"/></g>
<g><path style="opacity:0.922" fill="#fef4e8" d="M 695.5,795.5 C 743.5,795.5 791.5,795.5 839.5,795.5C 839.5,799.833 839.5,804.167 839.5,808.5C 791.5,808.5 743.5,808.5 695.5,808.5C 695.5,804.167 695.5,799.833 695.5,795.5 Z"/></g>
</svg>
